<?xml version="1.0" encoding="utf-8"?>
<!-- Generator: Adobe Illustrator 24.0.2, SVG Export Plug-In . SVG Version: 6.00 Build 0)  -->
<svg version="1.1" id="Capa_1" xmlns="http://www.w3.org/2000/svg" xmlns:xlink="http://www.w3.org/1999/xlink" x="0px" y="0px"
	 viewBox="0 0 12 12" style="enable-background:new 0 0 12 12;" xml:space="preserve">
<style type="text/css">
	.st0{fill:#5D6D74;}
</style>
<g>
	<g>
		<path class="st0" d="M11.4,10.5c-0.1-0.1-3.6-2.2-3.6-2.2C7.3,7.9,7.2,7.6,7.6,7.4C8,7.2,8.3,6.6,8.5,6c0,0,0.1,0,0.1,0
			c0.9-0.3,1-2.2,0.3-1.8c0.6-5.1-6.5-5.1-5.9,0C2.4,3.9,2.4,5.8,3.4,6c0,0,0.1,0,0.1,0C3.7,6.6,4,7.2,4.4,7.4
			c0.4,0.2,0.3,0.5-0.2,0.9C4,8.4,1.8,9.7,1.1,10.1c0,0,0,0,0,0h0c-0.3,0.2-0.5,0.3-0.5,0.4c-0.2,0.4-0.3,1.1-0.3,1.1h11.3
			C11.6,11.6,11.6,10.9,11.4,10.5z"/>
	</g>
</g>
</svg>
