<?xml version="1.0" encoding="utf-8"?>
<!-- Generator: Adobe Illustrator 24.0.2, SVG Export Plug-In . SVG Version: 6.00 Build 0)  -->
<svg version="1.1" id="Capa_1" xmlns="http://www.w3.org/2000/svg" xmlns:xlink="http://www.w3.org/1999/xlink" x="0px" y="0px"
	 viewBox="0 0 12 12" style="enable-background:new 0 0 12 12;" xml:space="preserve">
<style type="text/css">
	.st0{fill:#16AE37;}
</style>
<g>
	<path class="st0" d="M11.8,2.7c0.1,0.2,0,0.5,0,0.7S11.6,3.9,11.4,4L5.1,10c-0.3,0.3-0.6,0.4-1,0.4s-0.7-0.1-1-0.4L0.6,7.2
		C0.4,7,0.3,6.8,0.2,6.6s-0.1-0.5,0-0.7s0.2-0.4,0.4-0.6C0.8,5.1,1,5,1.2,4.9s0.5-0.1,0.7,0s0.4,0.2,0.6,0.4L4.2,7l5.3-5
		c0.2-0.2,0.4-0.3,0.6-0.3s0.5,0,0.7,0s0.4,0.2,0.6,0.4S11.7,2.5,11.8,2.7z"/>
</g>
</svg>
